# xmcd CD database file
#
# Track frame offsets:
#	150
#	15060
#	29988
#	45123
#
# Disc length: 887 seconds
#
# Revision: 2
# Processed by: cddbd v1.5.2PL0 Copyright (c) Steve Scherf et al.
# Submitted via: CDex 1.70beta2
#
DISCID=20037504
DTITLE=王若琳 - Joanna and 王若琳 [2009 最新專輯樂迷分享預購禮 Bonus CD]
DYEAR=2008
DGENRE=Jazz
TTITLE0=Times of Your Life
TTITLE1=His Remedy
TTITLE2=50 Ways to Leave Your Lover
TTITLE3=We've Only Just Begun
EXTD=2009最新專輯樂迷分享預購禮 Bonus DVD+CD YEAR: 2008
EXTT0=遠傳相片分享服務廣告主題曲,經典雋永,翻唱自 Paul Anka 70年代金曲
EXTT1=翻唱 Paul Simon 不朽名曲,幽默反諷的都會愛情觀
EXTT2=Joanna 最新創作單曲
EXTT3=翻唱自 The Carpenters 卡本特兄妹70金曲,溫馨浪漫的幸福定情曲
PLAYORDER=
